<svg width="230" height="34" viewBox="0 0 230 34" fill="none" xmlns="http://www.w3.org/2000/svg">
<path d="M49.2227 18.7103C46.8628 18.7103 44.8742 17.9193 43.3098 16.3372C41.7454 14.7552 40.95 12.804 40.95 10.4573V10.4045C40.95 8.08419 41.7454 6.10662 43.3363 4.52457C44.9272 2.91615 46.9424 2.12512 49.3817 2.12512C51.9537 2.12512 54.0749 2.94252 55.7453 4.60367L53.4916 7.18769C52.1128 5.97479 50.7605 5.36833 49.3552 5.36833C48.0295 5.36833 46.9159 5.84295 46.0143 6.81855C45.1128 7.79415 44.6886 8.98069 44.6886 10.3518V10.4045C44.6886 11.802 45.1394 13.0149 46.0143 13.9905C46.8893 14.9661 48.003 15.4671 49.3817 15.4671C50.2302 15.4671 50.9992 15.3089 51.6355 15.0189C52.2719 14.7024 52.9347 14.2278 53.6241 13.595L55.8779 15.8626C54.9764 16.8382 54.0219 17.5501 53.0143 18.0248C51.9537 18.473 50.7075 18.7103 49.2227 18.7103Z" fill="#4E2D2D"/>
<path d="M58.6884 18.4216V2.39014H62.2414V7.42634H65.105C67.0936 7.42634 68.6315 7.90096 69.7716 8.82382C70.9117 9.74669 71.4686 11.0914 71.4686 12.8581V12.8844C71.4686 14.6247 70.9117 15.9694 69.7716 16.9714C68.6315 17.9734 67.0406 18.4743 64.9724 18.4743H58.6884V18.4216ZM62.2414 15.2575H65.0254C65.9269 15.2575 66.6163 15.0466 67.1201 14.6511C67.6239 14.2555 67.8625 13.6755 67.8625 12.9108V12.8844C67.8625 12.1461 67.6239 11.5924 67.1466 11.1705C66.6693 10.775 65.98 10.5641 65.0519 10.5641H62.2414V15.2575ZM73.8019 18.4216V2.39014H77.3549V18.448H73.8019V18.4216Z" fill="#4E2D2D"/>
<path d="M81.2261 18.4216V2.39014H87.8283C89.7374 2.39014 91.2487 2.89112 92.3358 3.91946C93.4494 4.94779 94.0063 6.26617 94.0063 7.95369V8.00643C94.0063 9.79942 93.3964 11.1969 92.1502 12.1725C90.9305 13.1481 89.3661 13.6491 87.4836 13.6491H84.7791V18.4743H81.2261V18.4216ZM84.7791 10.485H87.5896C88.4381 10.485 89.1275 10.2477 89.6313 9.79942C90.1351 9.35117 90.4002 8.77109 90.4002 8.05916V8.00643C90.4002 7.2154 90.1351 6.63531 89.6313 6.21343C89.1275 5.79155 88.4116 5.58061 87.5101 5.58061H84.7791V10.485Z" fill="#4E2D2D"/>
<path d="M110.605 16.2857C108.961 17.8941 106.919 18.7115 104.453 18.7115C101.987 18.7115 99.9458 17.9205 98.3284 16.3121C96.711 14.7037 95.889 12.7525 95.889 10.4585V10.4058C95.889 8.08541 96.711 6.13421 98.3549 4.52579C99.9988 2.91737 102.04 2.09998 104.506 2.09998C106.972 2.09998 109.014 2.891 110.631 4.49942C112.249 6.10784 113.071 8.05904 113.071 10.353V10.4058C113.071 12.7261 112.249 14.6773 110.605 16.2857ZM101.006 13.9917C101.934 14.9673 103.101 15.4683 104.506 15.4683C105.912 15.4683 107.078 14.9937 107.98 14.0181C108.881 13.0425 109.332 11.8823 109.332 10.4585V10.4058C109.332 9.00828 108.881 7.79537 107.953 6.81977C107.025 5.84417 105.859 5.34319 104.453 5.34319C103.048 5.34319 101.881 5.8178 100.98 6.7934C100.078 7.769 99.6276 8.92917 99.6276 10.353V10.4058C99.6276 11.8032 100.078 13.0161 101.006 13.9917Z" fill="#4E2D2D"/>
<path d="M116.226 18.4216V2.39014H123.73C125.586 2.39014 126.991 2.86475 127.946 3.81398C128.688 4.55228 129.059 5.44877 129.059 6.52984V6.58258C129.059 8.16463 128.343 9.29844 126.938 10.0367C127.946 10.4059 128.688 10.9069 129.192 11.5397C129.696 12.1461 129.961 12.9635 129.961 13.9919V14.0446C129.961 15.4684 129.43 16.5759 128.343 17.3142C127.256 18.0525 125.798 18.448 123.915 18.448H116.226V18.4216ZM125.506 7.16267V7.10993C125.506 6.00249 124.737 5.44877 123.173 5.44877H119.673V8.87656H122.934C124.658 8.87656 125.506 8.29647 125.506 7.16267ZM126.408 13.5963V13.5436C126.408 12.3834 125.533 11.8034 123.783 11.8034H119.673V15.3366H123.889C125.586 15.3366 126.408 14.7565 126.408 13.5963Z" fill="#4E2D2D"/>
<path d="M131.499 18.4217L138.419 2.25842H141.68L148.601 18.4217H144.889L143.404 14.8094H136.589L135.105 18.4217H131.499ZM137.862 11.7244H142.158L139.983 6.5036L137.862 11.7244Z" fill="#4E2D2D"/>
<path d="M151.093 18.4216V2.39014H157.695C159.604 2.39014 161.115 2.89112 162.202 3.91946C163.316 4.94779 163.873 6.26617 163.873 7.95369V8.00643C163.873 9.79942 163.263 11.1969 162.017 12.1725C160.797 13.1481 159.233 13.6491 157.35 13.6491H154.646V18.4743H151.093V18.4216ZM154.619 10.485H157.43C158.278 10.485 158.968 10.2477 159.471 9.79942C159.975 9.35117 160.24 8.77109 160.24 8.05916V8.00643C160.24 7.2154 159.975 6.63531 159.471 6.21343C158.968 5.79155 158.252 5.58061 157.35 5.58061H154.619V10.485Z" fill="#4E2D2D"/>
<path d="M166.472 18.4216V2.39014H178.642V5.52788H169.998V8.77109H177.608V11.9088H169.998V15.2839H178.748V18.4216H166.472Z" fill="#4E2D2D"/>
<path d="M181.93 18.4216V2.39014H185.483V8.74472H192.033V2.39014H195.586V18.448H192.033V11.9879H185.483V18.4216H181.93Z" fill="#4E2D2D"/>
<path d="M213.801 18.4216H210.248V7.95369L202.585 18.4216H199.456V2.39014H203.009V12.5416L210.407 2.39014H213.801V18.4216Z" fill="#4E2D2D"/>
<path d="M217.672 18.4216V2.39014H229.842V5.52788H221.198V8.77109H228.808V11.9088H221.198V15.2839H229.948V18.4216H217.672Z" fill="#4E2D2D"/>
<path d="M41.9651 26.6058C41.9651 26.1062 42.0317 25.643 42.1649 25.2162C42.2981 24.7893 42.498 24.4199 42.7644 24.1081C43.0308 23.7933 43.3653 23.5465 43.768 23.3679C44.1706 23.1893 44.6399 23.1 45.1757 23.1C45.6692 23.1 46.1142 23.1893 46.5108 23.3679C46.9074 23.5465 47.2435 23.7933 47.519 24.1081C47.7975 24.4199 48.0109 24.7893 48.1593 25.2162C48.3076 25.643 48.3818 26.1062 48.3818 26.6058C48.3818 27.1023 48.3076 27.5655 48.1593 27.9954C48.0109 28.4222 47.7975 28.7931 47.519 29.1079C47.2435 29.4198 46.9074 29.665 46.5108 29.8436C46.1142 30.0222 45.6692 30.1115 45.1757 30.1115C44.6399 30.1115 44.1706 30.0222 43.768 29.8436C43.3653 29.665 43.0308 29.4198 42.7644 29.1079C42.498 28.7931 42.2981 28.4222 42.1649 27.9954C42.0317 27.5655 41.9651 27.1023 41.9651 26.6058ZM45.1757 28.9036C45.4603 28.9036 45.7146 28.8461 45.9387 28.731C46.1627 28.616 46.3519 28.457 46.5063 28.2542C46.6637 28.0483 46.7833 27.8061 46.8651 27.5276C46.9468 27.2461 46.9877 26.9388 46.9877 26.6058C46.9877 26.2727 46.9468 25.967 46.8651 25.6884C46.7833 25.4069 46.6637 25.1647 46.5063 24.9619C46.3519 24.756 46.1627 24.5955 45.9387 24.4805C45.7146 24.3654 45.4603 24.3079 45.1757 24.3079C44.8912 24.3079 44.6368 24.3654 44.4128 24.4805C44.1888 24.5955 43.9981 24.756 43.8406 24.9619C43.6862 25.1647 43.5666 25.4069 43.4819 25.6884C43.4001 25.967 43.3593 26.2727 43.3593 26.6058C43.3593 26.9388 43.4001 27.2461 43.4819 27.5276C43.5666 27.8061 43.6862 28.0483 43.8406 28.2542C43.9981 28.457 44.1888 28.616 44.4128 28.731C44.6368 28.8461 44.8912 28.9036 45.1757 28.9036Z" fill="#4E2D2D"/>
<path d="M53.7313 23.1908C53.7343 23.4451 53.6904 23.654 53.5996 23.8175C53.5088 23.9779 53.3877 24.1081 53.2363 24.208C53.088 24.3049 52.9154 24.376 52.7186 24.4215C52.5249 24.4638 52.3251 24.4926 52.1192 24.5077C51.9769 24.5198 51.8301 24.5395 51.6787 24.5668C51.5273 24.591 51.379 24.6304 51.2337 24.6848C51.0883 24.7363 50.9506 24.8059 50.8204 24.8937C50.6902 24.9785 50.5737 25.0845 50.4707 25.2116C50.3678 25.3388 50.283 25.4901 50.2164 25.6657C50.1498 25.8413 50.109 26.0472 50.0938 26.2833C50.1423 26.1259 50.2195 25.9776 50.3254 25.8383C50.4314 25.696 50.5631 25.5734 50.7205 25.4705C50.881 25.3645 51.0656 25.2813 51.2745 25.2207C51.4834 25.1571 51.715 25.1253 51.9693 25.1253C52.3084 25.1253 52.6142 25.1829 52.8866 25.2979C53.1591 25.4099 53.3907 25.5689 53.5814 25.7747C53.7722 25.9806 53.9175 26.2288 54.0174 26.5195C54.1203 26.8101 54.1718 27.1325 54.1718 27.4867C54.1718 27.8803 54.1128 28.2376 53.9947 28.5585C53.8796 28.8794 53.7131 29.1549 53.4952 29.385C53.2802 29.612 53.0168 29.7891 52.705 29.9163C52.3932 30.0404 52.042 30.1025 51.6514 30.1025C51.0823 30.1025 50.6115 29.9859 50.2391 29.7528C49.8668 29.5197 49.5807 29.1397 49.3809 28.613C49.3143 28.4343 49.2628 28.2451 49.2265 28.0453C49.1901 27.8455 49.1629 27.6578 49.1447 27.4822C49.1296 27.3066 49.1205 27.1537 49.1175 27.0235C49.1144 26.8934 49.1129 26.8071 49.1129 26.7647C49.1129 26.2924 49.1674 25.861 49.2764 25.4705C49.3854 25.0769 49.558 24.7348 49.7941 24.4442C50.0333 24.1535 50.339 23.9189 50.7114 23.7403C51.0868 23.5617 51.5409 23.4481 52.0738 23.3997C52.2433 23.3846 52.3629 23.3573 52.4325 23.318C52.5052 23.2756 52.5506 23.2332 52.5688 23.1908H53.7313ZM50.4617 27.4686C50.4617 27.6563 50.4813 27.8425 50.5207 28.0271C50.5631 28.2088 50.6312 28.3723 50.725 28.5176C50.8189 28.6599 50.9415 28.7749 51.0929 28.8627C51.2443 28.9505 51.4304 28.9944 51.6514 28.9944C51.8846 28.9944 52.0768 28.952 52.2282 28.8673C52.3826 28.7795 52.5052 28.6659 52.596 28.5267C52.6868 28.3844 52.7504 28.2224 52.7867 28.0408C52.8231 27.8561 52.8412 27.6654 52.8412 27.4686C52.8412 27.2748 52.82 27.0932 52.7777 26.9236C52.7353 26.7541 52.6687 26.6073 52.5778 26.4831C52.487 26.356 52.369 26.2576 52.2236 26.188C52.0783 26.1153 51.9027 26.079 51.6969 26.079C51.4759 26.079 51.2866 26.1168 51.1292 26.1925C50.9748 26.2652 50.8477 26.3651 50.7478 26.4922C50.6478 26.6194 50.5752 26.7677 50.5298 26.9373C50.4844 27.1038 50.4617 27.2809 50.4617 27.4686Z" fill="#4E2D2D"/>
<path d="M54.7985 27.4686C54.7985 27.0871 54.856 26.7359 54.971 26.415C55.0891 26.0941 55.2571 25.8186 55.4751 25.5885C55.6961 25.3554 55.9625 25.1738 56.2744 25.0436C56.5862 24.9134 56.9374 24.8483 57.3279 24.8483C57.7245 24.8483 58.0787 24.9134 58.3905 25.0436C58.7054 25.1738 58.9703 25.3554 59.1853 25.5885C59.4032 25.8186 59.5697 26.0941 59.6848 26.415C59.7998 26.7359 59.8573 27.0871 59.8573 27.4686C59.8573 27.85 59.7998 28.2012 59.6848 28.5221C59.5697 28.843 59.4032 29.1201 59.1853 29.3532C58.9703 29.5863 58.7054 29.7679 58.3905 29.8981C58.0787 30.0283 57.7245 30.0934 57.3279 30.0934C56.9374 30.0934 56.5862 30.0283 56.2744 29.8981C55.9625 29.7679 55.6961 29.5863 55.4751 29.3532C55.2571 29.1201 55.0891 28.843 54.971 28.5221C54.856 28.2012 54.7985 27.85 54.7985 27.4686ZM56.1381 27.4686C56.1381 27.6563 56.1578 27.8425 56.1972 28.0271C56.2395 28.2088 56.3077 28.3723 56.4015 28.5176C56.4954 28.6599 56.618 28.7749 56.7693 28.8627C56.9207 28.9505 57.1069 28.9944 57.3279 28.9944C57.558 28.9944 57.7487 28.952 57.9001 28.8673C58.0545 28.7795 58.1771 28.6659 58.2679 28.5267C58.3588 28.3844 58.4223 28.2224 58.4587 28.0408C58.498 27.8561 58.5177 27.6654 58.5177 27.4686C58.5177 27.2748 58.498 27.0856 58.4587 26.9009C58.4223 26.7163 58.3588 26.5543 58.2679 26.415C58.1771 26.2727 58.0545 26.1592 57.9001 26.0744C57.7487 25.9866 57.558 25.9427 57.3279 25.9427C57.1069 25.9427 56.9207 25.9866 56.7693 26.0744C56.618 26.1622 56.4954 26.2788 56.4015 26.4241C56.3077 26.5664 56.2395 26.7299 56.1972 26.9146C56.1578 27.0962 56.1381 27.2809 56.1381 27.4686Z" fill="#4E2D2D"/>
<path d="M60.752 24.9936H61.9781V25.7021H61.9962C62.084 25.5537 62.1764 25.4266 62.2732 25.3206C62.3701 25.2116 62.4776 25.1223 62.5957 25.0527C62.7137 24.983 62.8439 24.9316 62.9862 24.8983C63.1315 24.865 63.295 24.8483 63.4767 24.8483C63.628 24.8483 63.7839 24.8665 63.9444 24.9028C64.1049 24.9392 64.2608 24.9982 64.4121 25.0799C64.5665 25.1586 64.7119 25.2631 64.8481 25.3933C64.9843 25.5204 65.1039 25.6778 65.2068 25.8655C65.3098 26.0533 65.3915 26.2727 65.4521 26.524C65.5126 26.7723 65.5429 27.0569 65.5429 27.3778C65.5429 27.7774 65.499 28.1437 65.4112 28.4767C65.3264 28.8097 65.1962 29.0958 65.0207 29.335C64.8481 29.5742 64.6286 29.7604 64.3622 29.8936C64.0988 30.0268 63.7885 30.0934 63.4312 30.0934C63.3071 30.0934 63.1815 30.0813 63.0543 30.0571C62.9272 30.0328 62.8031 29.992 62.682 29.9344C62.5609 29.8769 62.4458 29.7997 62.3368 29.7028C62.2309 29.6029 62.137 29.4788 62.0553 29.3305H62.0371V31.8599H60.752V24.9936ZM63.0952 26.0018C62.8893 26.0018 62.7153 26.0457 62.573 26.1335C62.4337 26.2213 62.3202 26.3348 62.2324 26.4741C62.1476 26.6133 62.0855 26.7708 62.0462 26.9463C62.0068 27.1219 61.9872 27.296 61.9872 27.4686C61.9872 27.5624 61.9917 27.6654 62.0008 27.7774C62.0129 27.8864 62.0341 27.9984 62.0644 28.1134C62.0946 28.2254 62.1355 28.3344 62.187 28.4404C62.2415 28.5464 62.3096 28.6402 62.3913 28.7219C62.4731 28.8037 62.5715 28.8703 62.6865 28.9218C62.8015 28.9702 62.9378 28.9944 63.0952 28.9944C63.2526 28.9944 63.3889 28.9702 63.5039 28.9218C63.6189 28.8703 63.7173 28.8037 63.7991 28.7219C63.8808 28.6402 63.9474 28.5464 63.9989 28.4404C64.0534 28.3344 64.0958 28.2254 64.126 28.1134C64.1563 27.9984 64.176 27.8864 64.1851 27.7774C64.1972 27.6654 64.2032 27.5624 64.2032 27.4686C64.2032 27.296 64.1836 27.1219 64.1442 26.9463C64.1049 26.7708 64.0413 26.6133 63.9535 26.4741C63.8687 26.3348 63.7552 26.2213 63.6129 26.1335C63.4706 26.0457 63.298 26.0018 63.0952 26.0018Z" fill="#4E2D2D"/>
<path d="M69.1985 29.8618C69.1017 30.1464 69.0139 30.3931 68.9351 30.602C68.8564 30.8139 68.7777 30.9956 68.699 31.1469C68.6233 31.3013 68.5416 31.427 68.4538 31.5238C68.369 31.6238 68.2691 31.7025 68.1541 31.76C68.039 31.8175 67.9043 31.8569 67.7499 31.8781C67.5955 31.9023 67.4123 31.9144 67.2004 31.9144C67.1157 31.9144 67.0354 31.9114 66.9597 31.9053C66.8871 31.9023 66.7993 31.8962 66.6963 31.8871V30.8472C66.7478 30.8533 66.8114 30.8593 66.8871 30.8654C66.9628 30.8714 67.0263 30.8745 67.0778 30.8745C67.214 30.8745 67.3291 30.8487 67.4229 30.7973C67.5168 30.7458 67.591 30.6837 67.6455 30.6111C67.703 30.5414 67.7438 30.4688 67.7681 30.3931C67.7923 30.3174 67.8044 30.2538 67.8044 30.2024L65.9925 24.9936H67.432L68.4947 28.6402H68.5128L69.5255 24.9936H70.9015L69.1985 29.8618Z" fill="#4E2D2D"/>
<path d="M71.2239 28.9036H71.737C71.8581 28.6765 71.9581 28.4389 72.0368 28.1906C72.1185 27.9394 72.1836 27.6866 72.232 27.4323C72.2805 27.1779 72.3153 26.9297 72.3365 26.6875C72.3577 26.4423 72.3728 26.2122 72.3819 25.9972C72.391 25.7823 72.394 25.5885 72.391 25.416C72.391 25.2434 72.3925 25.1026 72.3955 24.9936H76.2646V28.9036H76.8867V31.1333H75.6788V29.9435H72.4318V31.1333H71.2239V28.9036ZM74.984 28.9036V26.0381H73.5126C73.5126 26.1289 73.5111 26.241 73.5081 26.3742C73.5081 26.5074 73.5021 26.6557 73.4899 26.8192C73.4809 26.9797 73.4657 27.1507 73.4445 27.3323C73.4264 27.514 73.3976 27.6956 73.3582 27.8773C73.3219 28.0589 73.2765 28.2376 73.222 28.4131C73.1705 28.5887 73.1055 28.7522 73.0267 28.9036H74.984Z" fill="#4E2D2D"/>
<path d="M77.3045 27.4686C77.3045 27.0871 77.362 26.7359 77.4771 26.415C77.5952 26.0941 77.7632 25.8186 77.9812 25.5885C78.2022 25.3554 78.4686 25.1738 78.7804 25.0436C79.0922 24.9134 79.4434 24.8483 79.834 24.8483C80.2306 24.8483 80.5848 24.9134 80.8966 25.0436C81.2114 25.1738 81.4763 25.3554 81.6913 25.5885C81.9093 25.8186 82.0758 26.0941 82.1908 26.415C82.3059 26.7359 82.3634 27.0871 82.3634 27.4686C82.3634 27.85 82.3059 28.2012 82.1908 28.5221C82.0758 28.843 81.9093 29.1201 81.6913 29.3532C81.4763 29.5863 81.2114 29.7679 80.8966 29.8981C80.5848 30.0283 80.2306 30.0934 79.834 30.0934C79.4434 30.0934 79.0922 30.0283 78.7804 29.8981C78.4686 29.7679 78.2022 29.5863 77.9812 29.3532C77.7632 29.1201 77.5952 28.843 77.4771 28.5221C77.362 28.2012 77.3045 27.85 77.3045 27.4686ZM78.6442 27.4686C78.6442 27.6563 78.6638 27.8425 78.7032 28.0271C78.7456 28.2088 78.8137 28.3723 78.9076 28.5176C79.0014 28.6599 79.124 28.7749 79.2754 28.8627C79.4268 28.9505 79.613 28.9944 79.834 28.9944C80.064 28.9944 80.2548 28.952 80.4061 28.8673C80.5605 28.7795 80.6832 28.6659 80.774 28.5267C80.8648 28.3844 80.9284 28.2224 80.9647 28.0408C81.0041 27.8561 81.0237 27.6654 81.0237 27.4686C81.0237 27.2748 81.0041 27.0856 80.9647 26.9009C80.9284 26.7163 80.8648 26.5543 80.774 26.415C80.6832 26.2727 80.5605 26.1592 80.4061 26.0744C80.2548 25.9866 80.064 25.9427 79.834 25.9427C79.613 25.9427 79.4268 25.9866 79.2754 26.0744C79.124 26.1622 79.0014 26.2788 78.9076 26.4241C78.8137 26.5664 78.7456 26.7299 78.7032 26.9146C78.6638 27.0962 78.6442 27.2809 78.6442 27.4686Z" fill="#4E2D2D"/>
<path d="M84.6158 26.9373H85.6058C85.7511 26.9373 85.8722 26.9267 85.9691 26.9055C86.066 26.8813 86.1416 26.848 86.1961 26.8056C86.2537 26.7602 86.293 26.7057 86.3142 26.6421C86.3384 26.5755 86.3505 26.4983 86.3505 26.4105C86.3505 26.3378 86.3384 26.2712 86.3142 26.2107C86.293 26.1471 86.2552 26.0941 86.2007 26.0517C86.1462 26.0063 86.0735 25.9715 85.9827 25.9473C85.8919 25.92 85.7784 25.9064 85.6421 25.9064H84.6158V26.9373ZM83.3307 24.9936H85.8919C86.1189 24.9936 86.3369 25.0133 86.5458 25.0527C86.7577 25.092 86.9439 25.1617 87.1044 25.2616C87.2648 25.3585 87.392 25.4917 87.4858 25.6612C87.5827 25.8277 87.6312 26.0396 87.6312 26.297C87.6312 26.4453 87.6145 26.574 87.5812 26.683C87.5509 26.7919 87.5085 26.8858 87.454 26.9645C87.3996 27.0402 87.336 27.1053 87.2633 27.1598C87.1937 27.2112 87.121 27.2551 87.0453 27.2915C87.2936 27.3793 87.4828 27.52 87.613 27.7138C87.7432 27.9045 87.8083 28.1331 87.8083 28.3995C87.8083 28.6326 87.7674 28.8446 87.6856 29.0353C87.6069 29.223 87.4934 29.385 87.3451 29.5212C87.1997 29.6544 87.0211 29.7588 86.8092 29.8345C86.6003 29.9072 86.3657 29.9435 86.1053 29.9435H83.3307V24.9936ZM84.6158 29.0307H85.6058C85.7905 29.0307 85.9388 29.0111 86.0508 28.9717C86.1659 28.9324 86.2537 28.8824 86.3142 28.8219C86.3778 28.7613 86.4187 28.6947 86.4368 28.622C86.458 28.5494 86.4686 28.4813 86.4686 28.4177C86.4686 28.2966 86.452 28.1967 86.4187 28.118C86.3884 28.0362 86.3384 27.9711 86.2688 27.9227C86.2022 27.8743 86.1129 27.841 86.0009 27.8228C85.8919 27.8046 85.7602 27.7955 85.6058 27.7955H84.6158V29.0307Z" fill="#4E2D2D"/>
<path d="M92.8444 28.9672C92.8444 29.1155 92.852 29.2381 92.8671 29.335C92.8853 29.4289 92.908 29.5045 92.9352 29.5621C92.9625 29.6166 92.9928 29.6574 93.0261 29.6847C93.0624 29.7089 93.1002 29.7271 93.1396 29.7392V29.9435H91.7182C91.694 29.886 91.6667 29.8103 91.6365 29.7165C91.6092 29.6196 91.5956 29.503 91.5956 29.3668C91.4957 29.4697 91.3973 29.5651 91.3004 29.6529C91.2066 29.7407 91.1006 29.8179 90.9825 29.8845C90.8645 29.9481 90.7282 29.998 90.5738 30.0343C90.4194 30.0737 90.2332 30.0934 90.0153 30.0934C89.7943 30.0934 89.5899 30.0601 89.4022 29.9935C89.2175 29.9299 89.0571 29.8345 88.9208 29.7074C88.7846 29.5802 88.6786 29.4213 88.603 29.2306C88.5273 29.0398 88.4894 28.8188 88.4894 28.5675C88.4894 28.3647 88.5212 28.177 88.5848 28.0044C88.6484 27.8288 88.7377 27.676 88.8527 27.5458C88.9708 27.4126 89.1131 27.3036 89.2796 27.2188C89.4491 27.131 89.6384 27.072 89.8472 27.0417L91.1051 26.8555C91.1506 26.8495 91.199 26.8404 91.2505 26.8283C91.305 26.8162 91.3549 26.7965 91.4003 26.7692C91.4457 26.739 91.4836 26.6996 91.5139 26.6512C91.5441 26.5997 91.5593 26.5316 91.5593 26.4468C91.5593 26.3651 91.5456 26.2909 91.5184 26.2243C91.4942 26.1547 91.4518 26.0956 91.3912 26.0472C91.3307 25.9957 91.249 25.9564 91.146 25.9291C91.0461 25.9019 90.9205 25.8883 90.7691 25.8883C90.5965 25.8883 90.4573 25.9064 90.3513 25.9427C90.2484 25.9761 90.1666 26.0245 90.1061 26.0881C90.0455 26.1486 90.0016 26.2213 89.9744 26.306C89.9472 26.3878 89.9275 26.4756 89.9154 26.5694H88.6302C88.6302 26.5089 88.6393 26.4256 88.6575 26.3197C88.6786 26.2107 88.715 26.0926 88.7664 25.9655C88.8209 25.8383 88.8951 25.7096 88.989 25.5795C89.0858 25.4493 89.2115 25.3312 89.3659 25.2252C89.5233 25.1163 89.714 25.0269 89.9381 24.9573C90.1621 24.8877 90.43 24.8514 90.7419 24.8483C91.1839 24.8483 91.5411 24.8937 91.8136 24.9846C92.0891 25.0724 92.3025 25.1889 92.4539 25.3342C92.6083 25.4765 92.7112 25.637 92.7627 25.8156C92.8172 25.9912 92.8444 26.1668 92.8444 26.3424V28.9672ZM91.5593 27.5276C91.4806 27.57 91.4018 27.6094 91.3231 27.6457C91.2444 27.679 91.14 27.7078 91.0098 27.732L90.6692 27.7955C90.5209 27.8228 90.3907 27.8546 90.2787 27.8909C90.1666 27.9272 90.0728 27.9757 89.9971 28.0362C89.9244 28.0938 89.8684 28.1649 89.8291 28.2497C89.7928 28.3344 89.7746 28.4404 89.7746 28.5675C89.7746 28.6735 89.7912 28.7658 89.8245 28.8446C89.8578 28.9202 89.9033 28.9838 89.9608 29.0353C90.0213 29.0837 90.091 29.1201 90.1697 29.1443C90.2484 29.1685 90.3331 29.1806 90.424 29.1806C90.4724 29.1806 90.5345 29.1761 90.6102 29.167C90.6858 29.1549 90.7661 29.1337 90.8508 29.1034C90.9356 29.0731 91.0204 29.0323 91.1051 28.9808C91.1899 28.9263 91.2656 28.8567 91.3322 28.7719C91.3988 28.6871 91.4533 28.5842 91.4957 28.4631C91.5381 28.339 91.5593 28.1937 91.5593 28.0271V27.5276Z" fill="#4E2D2D"/>
<path d="M94.0206 24.9936H95.3057V26.7829H97.1949V24.9936H98.4755V29.9435H97.1949V27.8228H95.3057V29.9435H94.0206V24.9936Z" fill="#4E2D2D"/>
<path d="M99.7061 24.9936H100.991V28.0453H101.009L102.812 24.9936H104.161V29.9435H102.88V26.96H102.858L101.109 29.9435H99.7061V24.9936Z" fill="#4E2D2D"/>
<path d="M106.314 27.8682C106.314 27.9136 106.318 27.9742 106.327 28.0499C106.336 28.1255 106.354 28.2073 106.382 28.2951C106.409 28.3829 106.448 28.4722 106.5 28.563C106.551 28.6508 106.619 28.731 106.704 28.8037C106.792 28.8763 106.898 28.9354 107.022 28.9808C107.149 29.0262 107.3 29.0489 107.476 29.0489C107.567 29.0489 107.656 29.0368 107.744 29.0126C107.835 28.9853 107.918 28.9475 107.994 28.8991C108.069 28.8476 108.135 28.787 108.189 28.7174C108.247 28.6447 108.287 28.563 108.312 28.4722H109.642C109.642 28.563 109.623 28.6675 109.583 28.7855C109.544 28.9006 109.483 29.0186 109.402 29.1397C109.323 29.2578 109.223 29.3744 109.102 29.4894C108.981 29.6044 108.837 29.7074 108.67 29.7982C108.504 29.886 108.315 29.9571 108.103 30.0116C107.894 30.0661 107.661 30.0934 107.403 30.0934C107.073 30.0934 106.763 30.0434 106.472 29.9435C106.185 29.8466 105.932 29.6922 105.714 29.4803C105.499 29.2654 105.33 28.9884 105.205 28.6493C105.081 28.3102 105.019 27.8985 105.019 27.4141C105.019 27.078 105.063 26.7556 105.151 26.4468C105.242 26.135 105.381 25.861 105.569 25.6249C105.76 25.3887 106.002 25.201 106.295 25.0618C106.592 24.9195 106.948 24.8483 107.363 24.8483C107.802 24.8483 108.171 24.921 108.471 25.0663C108.77 25.2086 109.011 25.4114 109.193 25.6748C109.377 25.9382 109.509 26.2561 109.588 26.6285C109.666 27.0008 109.706 27.4141 109.706 27.8682H106.314ZM108.371 27.0145C108.371 26.7965 108.337 26.6148 108.271 26.4695C108.207 26.3242 108.125 26.2092 108.026 26.1244C107.929 26.0366 107.821 25.9761 107.703 25.9427C107.585 25.9064 107.472 25.8883 107.363 25.8883C107.257 25.8883 107.145 25.9064 107.026 25.9427C106.908 25.9761 106.799 26.0366 106.7 26.1244C106.603 26.2092 106.521 26.3242 106.454 26.4695C106.391 26.6148 106.359 26.7965 106.359 27.0145H108.371Z" fill="#4E2D2D"/>
<path d="M113.157 24.9936H114.442V28.0453H114.46L116.263 24.9936H117.612V29.9435H116.331V26.96H116.309L114.56 29.9435H113.157V24.9936Z" fill="#4E2D2D"/>
<path d="M122.503 26.0381H121.004V24.9936H125.282V26.0381H123.783V29.9435H122.503V26.0381Z" fill="#4E2D2D"/>
<path d="M125.786 27.4686C125.786 27.0871 125.844 26.7359 125.959 26.415C126.077 26.0941 126.245 25.8186 126.463 25.5885C126.684 25.3554 126.95 25.1738 127.262 25.0436C127.574 24.9134 127.925 24.8483 128.316 24.8483C128.712 24.8483 129.066 24.9134 129.378 25.0436C129.693 25.1738 129.958 25.3554 130.173 25.5885C130.391 25.8186 130.557 26.0941 130.672 26.415C130.787 26.7359 130.845 27.0871 130.845 27.4686C130.845 27.85 130.787 28.2012 130.672 28.5221C130.557 28.843 130.391 29.1201 130.173 29.3532C129.958 29.5863 129.693 29.7679 129.378 29.8981C129.066 30.0283 128.712 30.0934 128.316 30.0934C127.925 30.0934 127.574 30.0283 127.262 29.8981C126.95 29.7679 126.684 29.5863 126.463 29.3532C126.245 29.1201 126.077 28.843 125.959 28.5221C125.844 28.2012 125.786 27.85 125.786 27.4686ZM127.126 27.4686C127.126 27.6563 127.145 27.8425 127.185 28.0271C127.227 28.2088 127.295 28.3723 127.389 28.5176C127.483 28.6599 127.606 28.7749 127.757 28.8627C127.908 28.9505 128.095 28.9944 128.316 28.9944C128.546 28.9944 128.736 28.952 128.888 28.8673C129.042 28.7795 129.165 28.6659 129.256 28.5267C129.346 28.3844 129.41 28.2224 129.446 28.0408C129.486 27.8561 129.505 27.6654 129.505 27.4686C129.505 27.2748 129.486 27.0856 129.446 26.9009C129.41 26.7163 129.346 26.5543 129.256 26.415C129.165 26.2727 129.042 26.1592 128.888 26.0744C128.736 25.9866 128.546 25.9427 128.316 25.9427C128.095 25.9427 127.908 25.9866 127.757 26.0744C127.606 26.1622 127.483 26.2788 127.389 26.4241C127.295 26.5664 127.227 26.7299 127.185 26.9146C127.145 27.0962 127.126 27.2809 127.126 27.4686Z" fill="#4E2D2D"/>
<path d="M133.097 26.9373H134.087C134.233 26.9373 134.354 26.9267 134.451 26.9055C134.548 26.8813 134.623 26.848 134.678 26.8056C134.735 26.7602 134.775 26.7057 134.796 26.6421C134.82 26.5755 134.832 26.4983 134.832 26.4105C134.832 26.3378 134.82 26.2712 134.796 26.2107C134.775 26.1471 134.737 26.0941 134.682 26.0517C134.628 26.0063 134.555 25.9715 134.464 25.9473C134.373 25.92 134.26 25.9064 134.124 25.9064H133.097V26.9373ZM131.812 24.9936H134.373C134.6 24.9936 134.818 25.0133 135.027 25.0527C135.239 25.092 135.425 25.1617 135.586 25.2616C135.746 25.3585 135.874 25.4917 135.967 25.6612C136.064 25.8277 136.113 26.0396 136.113 26.297C136.113 26.4453 136.096 26.574 136.063 26.683C136.032 26.7919 135.99 26.8858 135.936 26.9645C135.881 27.0402 135.818 27.1053 135.745 27.1598C135.675 27.2112 135.603 27.2551 135.527 27.2915C135.775 27.3793 135.964 27.52 136.095 27.7138C136.225 27.9045 136.29 28.1331 136.29 28.3995C136.29 28.6326 136.249 28.8446 136.167 29.0353C136.088 29.223 135.975 29.385 135.827 29.5212C135.681 29.6544 135.503 29.7588 135.291 29.8345C135.082 29.9072 134.847 29.9435 134.587 29.9435H131.812V24.9936ZM133.097 29.0307H134.087C134.272 29.0307 134.42 29.0111 134.532 28.9717C134.647 28.9324 134.735 28.8824 134.796 28.8219C134.859 28.7613 134.9 28.6947 134.918 28.622C134.94 28.5494 134.95 28.4813 134.95 28.4177C134.95 28.2966 134.934 28.1967 134.9 28.118C134.87 28.0362 134.82 27.9711 134.75 27.9227C134.684 27.8743 134.594 27.841 134.482 27.8228C134.373 27.8046 134.242 27.7955 134.087 27.7955H133.097V29.0307Z" fill="#4E2D2D"/>
<path d="M141.326 28.9672C141.326 29.1155 141.334 29.2381 141.349 29.335C141.367 29.4289 141.39 29.5045 141.417 29.5621C141.444 29.6166 141.474 29.6574 141.508 29.6847C141.544 29.7089 141.582 29.7271 141.621 29.7392V29.9435H140.2C140.176 29.886 140.148 29.8103 140.118 29.7165C140.091 29.6196 140.077 29.503 140.077 29.3668C139.977 29.4697 139.879 29.5651 139.782 29.6529C139.688 29.7407 139.582 29.8179 139.464 29.8845C139.346 29.9481 139.21 29.998 139.055 30.0343C138.901 30.0737 138.715 30.0934 138.497 30.0934C138.276 30.0934 138.071 30.0601 137.884 29.9935C137.699 29.9299 137.539 29.8345 137.402 29.7074C137.266 29.5802 137.16 29.4213 137.085 29.2306C137.009 29.0398 136.971 28.8188 136.971 28.5675C136.971 28.3647 137.003 28.177 137.066 28.0044C137.13 27.8288 137.219 27.676 137.334 27.5458C137.452 27.4126 137.595 27.3036 137.761 27.2188C137.931 27.131 138.12 27.072 138.329 27.0417L139.587 26.8555C139.632 26.8495 139.681 26.8404 139.732 26.8283C139.787 26.8162 139.836 26.7965 139.882 26.7692C139.927 26.739 139.965 26.6996 139.995 26.6512C140.026 26.5997 140.041 26.5316 140.041 26.4468C140.041 26.3651 140.027 26.2909 140 26.2243C139.976 26.1547 139.933 26.0956 139.873 26.0472C139.812 25.9957 139.731 25.9564 139.628 25.9291C139.528 25.9019 139.402 25.8883 139.251 25.8883C139.078 25.8883 138.939 25.9064 138.833 25.9427C138.73 25.9761 138.648 26.0245 138.588 26.0881C138.527 26.1486 138.483 26.2213 138.456 26.306C138.429 26.3878 138.409 26.4756 138.397 26.5694H137.112C137.112 26.5089 137.121 26.4256 137.139 26.3197C137.16 26.2107 137.197 26.0926 137.248 25.9655C137.302 25.8383 137.377 25.7096 137.471 25.5795C137.567 25.4493 137.693 25.3312 137.847 25.2252C138.005 25.1163 138.196 25.0269 138.42 24.9573C138.644 24.8877 138.912 24.8514 139.223 24.8483C139.665 24.8483 140.023 24.8937 140.295 24.9846C140.571 25.0724 140.784 25.1889 140.935 25.3342C141.09 25.4765 141.193 25.637 141.244 25.8156C141.299 25.9912 141.326 26.1668 141.326 26.3424V28.9672ZM140.041 27.5276C139.962 27.57 139.883 27.6094 139.805 27.6457C139.726 27.679 139.622 27.7078 139.491 27.732L139.151 27.7955C139.002 27.8228 138.872 27.8546 138.76 27.8909C138.648 27.9272 138.554 27.9757 138.479 28.0362C138.406 28.0938 138.35 28.1649 138.311 28.2497C138.274 28.3344 138.256 28.4404 138.256 28.5675C138.256 28.6735 138.273 28.7658 138.306 28.8446C138.339 28.9202 138.385 28.9838 138.442 29.0353C138.503 29.0837 138.573 29.1201 138.651 29.1443C138.73 29.1685 138.815 29.1806 138.906 29.1806C138.954 29.1806 139.016 29.1761 139.092 29.167C139.167 29.1549 139.248 29.1337 139.332 29.1034C139.417 29.0731 139.502 29.0323 139.587 28.9808C139.671 28.9263 139.747 28.8567 139.814 28.7719C139.88 28.6871 139.935 28.5842 139.977 28.4631C140.02 28.339 140.041 28.1937 140.041 28.0271V27.5276Z" fill="#4E2D2D"/>
<path d="M142.466 24.9936H143.692V25.7021H143.71C143.798 25.5537 143.89 25.4266 143.987 25.3206C144.084 25.2116 144.191 25.1223 144.31 25.0527C144.428 24.983 144.558 24.9316 144.7 24.8983C144.845 24.865 145.009 24.8483 145.191 24.8483C145.342 24.8483 145.498 24.8665 145.658 24.9028C145.819 24.9392 145.975 24.9982 146.126 25.0799C146.28 25.1586 146.426 25.2631 146.562 25.3933C146.698 25.5204 146.818 25.6778 146.921 25.8655C147.024 26.0533 147.105 26.2727 147.166 26.524C147.226 26.7723 147.257 27.0569 147.257 27.3778C147.257 27.7774 147.213 28.1437 147.125 28.4767C147.04 28.8097 146.91 29.0958 146.735 29.335C146.562 29.5742 146.342 29.7604 146.076 29.8936C145.813 30.0268 145.502 30.0934 145.145 30.0934C145.021 30.0934 144.895 30.0813 144.768 30.0571C144.641 30.0328 144.517 29.992 144.396 29.9344C144.275 29.8769 144.16 29.7997 144.051 29.7028C143.945 29.6029 143.851 29.4788 143.769 29.3305H143.751V31.8599H142.466V24.9936ZM144.809 26.0018C144.603 26.0018 144.429 26.0457 144.287 26.1335C144.148 26.2213 144.034 26.3348 143.946 26.4741C143.861 26.6133 143.799 26.7708 143.76 26.9463C143.721 27.1219 143.701 27.296 143.701 27.4686C143.701 27.5624 143.706 27.6654 143.715 27.7774C143.727 27.8864 143.748 27.9984 143.778 28.1134C143.808 28.2254 143.849 28.3344 143.901 28.4404C143.955 28.5464 144.023 28.6402 144.105 28.7219C144.187 28.8037 144.285 28.8703 144.4 28.9218C144.515 28.9702 144.652 28.9944 144.809 28.9944C144.966 28.9944 145.103 28.9702 145.218 28.9218C145.333 28.8703 145.431 28.8037 145.513 28.7219C145.595 28.6402 145.661 28.5464 145.713 28.4404C145.767 28.3344 145.81 28.2254 145.84 28.1134C145.87 27.9984 145.89 27.8864 145.899 27.7774C145.911 27.6654 145.917 27.5624 145.917 27.4686C145.917 27.296 145.897 27.1219 145.858 26.9463C145.819 26.7708 145.755 26.6133 145.667 26.4741C145.583 26.3348 145.469 26.2213 145.327 26.1335C145.184 26.0457 145.012 26.0018 144.809 26.0018Z" fill="#4E2D2D"/>
<path d="M153.151 24.9936H154.436V29.9435H153.151V24.9936ZM148.188 24.9936H149.473V26.7147H150.64C150.946 26.7147 151.218 26.7465 151.457 26.8101C151.7 26.8737 151.904 26.9721 152.07 27.1053C152.237 27.2385 152.364 27.408 152.452 27.6139C152.54 27.8167 152.584 28.0574 152.584 28.3359C152.584 28.5872 152.547 28.8022 152.475 28.9808C152.402 29.1594 152.308 29.3093 152.193 29.4304C152.081 29.5484 151.955 29.6423 151.816 29.7119C151.677 29.7785 151.541 29.83 151.407 29.8663C151.274 29.8996 151.15 29.9208 151.035 29.9299C150.923 29.939 150.837 29.9435 150.776 29.9435H148.188V24.9936ZM149.473 28.9763H150.413C150.513 28.9763 150.611 28.9687 150.708 28.9535C150.808 28.9354 150.897 28.9036 150.976 28.8582C151.058 28.8097 151.123 28.7447 151.171 28.6629C151.22 28.5781 151.244 28.4692 151.244 28.3359C151.244 28.2058 151.218 28.0983 151.167 28.0135C151.118 27.9288 151.05 27.8622 150.962 27.8137C150.878 27.7653 150.778 27.732 150.663 27.7138C150.551 27.6926 150.431 27.682 150.304 27.682H149.473V28.9763Z" fill="#4E2D2D"/>
<path d="M157.824 28.9036H158.337C158.458 28.6765 158.558 28.4389 158.637 28.1906C158.719 27.9394 158.784 27.6866 158.832 27.4323C158.881 27.1779 158.915 26.9297 158.937 26.6875C158.958 26.4423 158.973 26.2122 158.982 25.9972C158.991 25.7823 158.994 25.5885 158.991 25.416C158.991 25.2434 158.993 25.1026 158.996 24.9936H162.865V28.9036H163.487V31.1333H162.279V29.9435H159.032V31.1333H157.824V28.9036ZM161.584 28.9036V26.0381H160.113C160.113 26.1289 160.111 26.241 160.108 26.3742C160.108 26.5074 160.102 26.6557 160.09 26.8192C160.081 26.9797 160.066 27.1507 160.045 27.3323C160.027 27.514 159.998 27.6956 159.958 27.8773C159.922 28.0589 159.877 28.2376 159.822 28.4131C159.771 28.5887 159.706 28.7522 159.627 28.9036H161.584Z" fill="#4E2D2D"/>
<path d="M168.918 29.9435H167.638V26.0381H166.121L166.094 26.96C166.078 27.4777 166.045 27.9318 165.994 28.3223C165.942 28.7129 165.857 29.0398 165.739 29.3032C165.624 29.5636 165.467 29.7604 165.267 29.8936C165.07 30.0268 164.817 30.0934 164.509 30.0934C164.363 30.0934 164.236 30.0843 164.127 30.0661C164.018 30.051 163.929 30.0283 163.859 29.998V28.9218C163.902 28.9399 163.955 28.9566 164.018 28.9717C164.085 28.9868 164.165 28.9944 164.259 28.9944C164.356 28.9944 164.442 28.9657 164.518 28.9081C164.593 28.8476 164.659 28.7401 164.713 28.5857C164.768 28.4283 164.81 28.2118 164.84 27.9363C164.87 27.6608 164.89 27.3051 164.899 26.8691L164.936 24.9936H168.918V29.9435Z" fill="#4E2D2D"/>
<path d="M174.731 29.9435H173.441V28.1225H172.601C172.416 28.1225 172.257 28.1301 172.124 28.1452C171.994 28.1573 171.887 28.1891 171.802 28.2406C171.717 28.289 171.652 28.3617 171.606 28.4586C171.564 28.5554 171.54 28.6871 171.534 28.8536L171.516 29.3305C171.51 29.4001 171.501 29.4909 171.488 29.6029C171.479 29.7149 171.451 29.8285 171.402 29.9435H170.044C170.084 29.8769 170.115 29.8133 170.14 29.7528C170.164 29.6892 170.182 29.6287 170.194 29.5711C170.209 29.5106 170.22 29.45 170.226 29.3895C170.235 29.3289 170.243 29.2654 170.249 29.1988L170.312 28.6039C170.327 28.4707 170.346 28.3556 170.367 28.2587C170.388 28.1619 170.423 28.0786 170.471 28.009C170.52 27.9363 170.586 27.8743 170.671 27.8228C170.756 27.7713 170.869 27.7244 171.012 27.682C170.966 27.6699 170.915 27.6533 170.857 27.6321C170.803 27.6078 170.744 27.5776 170.68 27.5412C170.62 27.5019 170.557 27.4534 170.494 27.3959C170.433 27.3354 170.376 27.2612 170.321 27.1734C170.282 27.1159 170.25 27.0553 170.226 26.9918C170.205 26.9252 170.188 26.8616 170.176 26.801C170.164 26.7375 170.156 26.6784 170.153 26.6239C170.15 26.5694 170.149 26.5225 170.149 26.4831C170.149 26.3076 170.17 26.1516 170.212 26.0154C170.255 25.8761 170.309 25.755 170.376 25.6521C170.442 25.5492 170.518 25.4614 170.603 25.3887C170.688 25.3161 170.774 25.257 170.862 25.2116C170.959 25.1571 171.066 25.1163 171.184 25.089C171.302 25.0587 171.417 25.0375 171.529 25.0254C171.641 25.0103 171.746 25.0012 171.843 24.9982C171.94 24.9952 172.015 24.9936 172.07 24.9936H174.731V29.9435ZM173.441 25.9609H172.406C172.297 25.9609 172.188 25.9639 172.079 25.97C171.97 25.9761 171.871 26.0003 171.784 26.0427C171.699 26.082 171.629 26.1456 171.575 26.2334C171.523 26.3182 171.498 26.4393 171.498 26.5967C171.498 26.7511 171.523 26.8691 171.575 26.9509C171.629 27.0326 171.697 27.0932 171.779 27.1325C171.864 27.1719 171.958 27.1946 172.061 27.2007C172.164 27.2067 172.266 27.2097 172.369 27.2097H173.441V25.9609Z" fill="#4E2D2D"/>
<path d="M181.443 26.742C181.418 26.6118 181.385 26.4983 181.343 26.4014C181.3 26.3015 181.244 26.2182 181.175 26.1516C181.108 26.082 181.025 26.0305 180.925 25.9972C180.828 25.9609 180.71 25.9427 180.571 25.9427C180.356 25.9427 180.183 25.9927 180.053 26.0926C179.926 26.1925 179.828 26.3182 179.758 26.4695C179.688 26.6209 179.641 26.7859 179.617 26.9645C179.596 27.1431 179.585 27.3112 179.585 27.4686C179.585 27.6321 179.594 27.8046 179.613 27.9863C179.631 28.1649 179.673 28.3299 179.74 28.4813C179.806 28.6296 179.905 28.7522 180.035 28.8491C180.165 28.946 180.344 28.9944 180.571 28.9944C180.719 28.9944 180.848 28.9657 180.957 28.9081C181.066 28.8476 181.157 28.7734 181.229 28.6856C181.302 28.5978 181.355 28.504 181.388 28.4041C181.425 28.3042 181.443 28.2133 181.443 28.1316H182.782C182.782 28.2133 182.767 28.3193 182.737 28.4495C182.71 28.5797 182.663 28.7174 182.596 28.8627C182.53 29.008 182.44 29.1549 182.328 29.3032C182.219 29.4485 182.081 29.5802 181.915 29.6983C181.751 29.8133 181.559 29.9072 181.338 29.9799C181.117 30.0555 180.861 30.0934 180.571 30.0934C180.192 30.0934 179.858 30.0359 179.567 29.9208C179.28 29.8058 179.037 29.6377 178.841 29.4167C178.647 29.1927 178.498 28.9172 178.396 28.5903C178.296 28.2633 178.246 27.8894 178.246 27.4686C178.246 27.0478 178.3 26.6754 178.409 26.3515C178.521 26.0245 178.679 25.7505 178.881 25.5295C179.084 25.3055 179.328 25.1359 179.613 25.0209C179.9 24.9058 180.22 24.8483 180.571 24.8483C180.722 24.8483 180.878 24.8604 181.039 24.8847C181.202 24.9089 181.362 24.9513 181.52 25.0118C181.677 25.0693 181.827 25.145 181.969 25.2389C182.115 25.3327 182.243 25.4508 182.355 25.5931C182.47 25.7323 182.564 25.8973 182.637 26.0881C182.713 26.2758 182.761 26.4937 182.782 26.742H181.443Z" fill="#4E2D2D"/>
<path d="M188.681 24.9936H189.966V29.9435H188.681V24.9936ZM183.718 24.9936H185.003V26.7147H186.17C186.476 26.7147 186.748 26.7465 186.987 26.8101C187.23 26.8737 187.434 26.9721 187.601 27.1053C187.767 27.2385 187.894 27.408 187.982 27.6139C188.07 27.8167 188.114 28.0574 188.114 28.3359C188.114 28.5872 188.077 28.8022 188.005 28.9808C187.932 29.1594 187.838 29.3093 187.723 29.4304C187.611 29.5484 187.485 29.6423 187.346 29.7119C187.207 29.7785 187.071 29.83 186.938 29.8663C186.804 29.8996 186.68 29.9208 186.565 29.9299C186.453 29.939 186.367 29.9435 186.306 29.9435H183.718V24.9936ZM185.003 28.9763H185.943C186.043 28.9763 186.141 28.9687 186.238 28.9535C186.338 28.9354 186.427 28.9036 186.506 28.8582C186.588 28.8097 186.653 28.7447 186.701 28.6629C186.75 28.5781 186.774 28.4692 186.774 28.3359C186.774 28.2058 186.748 28.0983 186.697 28.0135C186.648 27.9288 186.58 27.8622 186.492 27.8137C186.408 27.7653 186.308 27.732 186.193 27.7138C186.081 27.6926 185.961 27.682 185.834 27.682H185.003V28.9763Z" fill="#4E2D2D"/>
<path d="M191.156 24.9936H192.382V25.7021H192.401C192.488 25.5537 192.581 25.4266 192.678 25.3206C192.774 25.2116 192.882 25.1223 193 25.0527C193.118 24.983 193.248 24.9316 193.391 24.8983C193.536 24.865 193.699 24.8483 193.881 24.8483C194.032 24.8483 194.188 24.8665 194.349 24.9028C194.509 24.9392 194.665 24.9982 194.816 25.0799C194.971 25.1586 195.116 25.2631 195.252 25.3933C195.389 25.5204 195.508 25.6778 195.611 25.8655C195.714 26.0533 195.796 26.2727 195.856 26.524C195.917 26.7723 195.947 27.0569 195.947 27.3778C195.947 27.7774 195.903 28.1437 195.815 28.4767C195.731 28.8097 195.601 29.0958 195.425 29.335C195.252 29.5742 195.033 29.7604 194.766 29.8936C194.503 30.0268 194.193 30.0934 193.836 30.0934C193.711 30.0934 193.586 30.0813 193.459 30.0571C193.331 30.0328 193.207 29.992 193.086 29.9344C192.965 29.8769 192.85 29.7997 192.741 29.7028C192.635 29.6029 192.541 29.4788 192.46 29.3305H192.441V31.8599H191.156V24.9936ZM193.499 26.0018C193.294 26.0018 193.12 26.0457 192.977 26.1335C192.838 26.2213 192.724 26.3348 192.637 26.4741C192.552 26.6133 192.49 26.7708 192.45 26.9463C192.411 27.1219 192.391 27.296 192.391 27.4686C192.391 27.5624 192.396 27.6654 192.405 27.7774C192.417 27.8864 192.438 27.9984 192.469 28.1134C192.499 28.2254 192.54 28.3344 192.591 28.4404C192.646 28.5464 192.714 28.6402 192.796 28.7219C192.877 28.8037 192.976 28.8703 193.091 28.9218C193.206 28.9702 193.342 28.9944 193.499 28.9944C193.657 28.9944 193.793 28.9702 193.908 28.9218C194.023 28.8703 194.122 28.8037 194.203 28.7219C194.285 28.6402 194.352 28.5464 194.403 28.4404C194.458 28.3344 194.5 28.2254 194.53 28.1134C194.561 27.9984 194.58 27.8864 194.589 27.7774C194.601 27.6654 194.608 27.5624 194.608 27.4686C194.608 27.296 194.588 27.1219 194.549 26.9463C194.509 26.7708 194.446 26.6133 194.358 26.4741C194.273 26.3348 194.159 26.2213 194.017 26.1335C193.875 26.0457 193.702 26.0018 193.499 26.0018Z" fill="#4E2D2D"/>
<path d="M196.583 27.4686C196.583 27.0871 196.64 26.7359 196.756 26.415C196.874 26.0941 197.042 25.8186 197.26 25.5885C197.481 25.3554 197.747 25.1738 198.059 25.0436C198.371 24.9134 198.722 24.8483 199.112 24.8483C199.509 24.8483 199.863 24.9134 200.175 25.0436C200.49 25.1738 200.755 25.3554 200.97 25.5885C201.188 25.8186 201.354 26.0941 201.469 26.415C201.584 26.7359 201.642 27.0871 201.642 27.4686C201.642 27.85 201.584 28.2012 201.469 28.5221C201.354 28.843 201.188 29.1201 200.97 29.3532C200.755 29.5863 200.49 29.7679 200.175 29.8981C199.863 30.0283 199.509 30.0934 199.112 30.0934C198.722 30.0934 198.371 30.0283 198.059 29.8981C197.747 29.7679 197.481 29.5863 197.26 29.3532C197.042 29.1201 196.874 28.843 196.756 28.5221C196.64 28.2012 196.583 27.85 196.583 27.4686ZM197.923 27.4686C197.923 27.6563 197.942 27.8425 197.982 28.0271C198.024 28.2088 198.092 28.3723 198.186 28.5176C198.28 28.6599 198.402 28.7749 198.554 28.8627C198.705 28.9505 198.891 28.9944 199.112 28.9944C199.342 28.9944 199.533 28.952 199.685 28.8673C199.839 28.7795 199.962 28.6659 200.052 28.5267C200.143 28.3844 200.207 28.2224 200.243 28.0408C200.282 27.8561 200.302 27.6654 200.302 27.4686C200.302 27.2748 200.282 27.0856 200.243 26.9009C200.207 26.7163 200.143 26.5543 200.052 26.415C199.962 26.2727 199.839 26.1592 199.685 26.0744C199.533 25.9866 199.342 25.9427 199.112 25.9427C198.891 25.9427 198.705 25.9866 198.554 26.0744C198.402 26.1622 198.28 26.2788 198.186 26.4241C198.092 26.5664 198.024 26.7299 197.982 26.9146C197.942 27.0962 197.923 27.2809 197.923 27.4686Z" fill="#4E2D2D"/>
<path d="M202.146 28.9036H202.659C202.78 28.6765 202.88 28.4389 202.959 28.1906C203.041 27.9394 203.106 27.6866 203.154 27.4323C203.202 27.1779 203.237 26.9297 203.258 26.6875C203.28 26.4423 203.295 26.2122 203.304 25.9972C203.313 25.7823 203.316 25.5885 203.313 25.416C203.313 25.2434 203.314 25.1026 203.318 24.9936H207.187V28.9036H207.809V31.1333H206.601V29.9435H203.354V31.1333H202.146V28.9036ZM205.906 28.9036V26.0381H204.435C204.435 26.1289 204.433 26.241 204.43 26.3742C204.43 26.5074 204.424 26.6557 204.412 26.8192C204.403 26.9797 204.388 27.1507 204.367 27.3323C204.348 27.514 204.32 27.6956 204.28 27.8773C204.244 28.0589 204.198 28.2376 204.144 28.4131C204.093 28.5887 204.027 28.7522 203.949 28.9036H205.906Z" fill="#4E2D2D"/>
<path d="M209.444 27.8682C209.444 27.9136 209.448 27.9742 209.457 28.0499C209.466 28.1255 209.484 28.2073 209.512 28.2951C209.539 28.3829 209.578 28.4722 209.63 28.563C209.681 28.6508 209.749 28.731 209.834 28.8037C209.922 28.8763 210.028 28.9354 210.152 28.9808C210.279 29.0262 210.431 29.0489 210.606 29.0489C210.697 29.0489 210.786 29.0368 210.874 29.0126C210.965 28.9853 211.048 28.9475 211.124 28.8991C211.199 28.8476 211.265 28.787 211.319 28.7174C211.377 28.6447 211.417 28.563 211.442 28.4722H212.772C212.772 28.563 212.753 28.6675 212.713 28.7855C212.674 28.9006 212.613 29.0186 212.532 29.1397C212.453 29.2578 212.353 29.3744 212.232 29.4894C212.111 29.6044 211.967 29.7074 211.8 29.7982C211.634 29.886 211.445 29.9571 211.233 30.0116C211.024 30.0661 210.791 30.0934 210.533 30.0934C210.203 30.0934 209.893 30.0434 209.602 29.9435C209.315 29.8466 209.062 29.6922 208.844 29.4803C208.629 29.2654 208.46 28.9884 208.336 28.6493C208.211 28.3102 208.149 27.8985 208.149 27.4141C208.149 27.078 208.193 26.7556 208.281 26.4468C208.372 26.135 208.511 25.861 208.699 25.6249C208.89 25.3887 209.132 25.201 209.425 25.0618C209.722 24.9195 210.078 24.8483 210.493 24.8483C210.932 24.8483 211.301 24.921 211.601 25.0663C211.9 25.2086 212.141 25.4114 212.323 25.6748C212.507 25.9382 212.639 26.2561 212.718 26.6285C212.796 27.0008 212.836 27.4141 212.836 27.8682H209.444ZM211.501 27.0145C211.501 26.7965 211.467 26.6148 211.401 26.4695C211.337 26.3242 211.255 26.2092 211.156 26.1244C211.059 26.0366 210.951 25.9761 210.833 25.9427C210.715 25.9064 210.602 25.8883 210.493 25.8883C210.387 25.8883 210.275 25.9064 210.157 25.9427C210.038 25.9761 209.929 26.0366 209.83 26.1244C209.733 26.2092 209.651 26.3242 209.584 26.4695C209.521 26.6148 209.489 26.7965 209.489 27.0145H211.501Z" fill="#4E2D2D"/>
<path d="M218.417 29.9435H217.136V26.0381H215.62L215.592 26.96C215.577 27.4777 215.544 27.9318 215.492 28.3223C215.441 28.7129 215.356 29.0398 215.238 29.3032C215.123 29.5636 214.966 29.7604 214.766 29.8936C214.569 30.0268 214.316 30.0934 214.007 30.0934C213.862 30.0934 213.735 30.0843 213.626 30.0661C213.517 30.051 213.428 30.0283 213.358 29.998V28.9218C213.4 28.9399 213.453 28.9566 213.517 28.9717C213.584 28.9868 213.664 28.9944 213.758 28.9944C213.855 28.9944 213.941 28.9657 214.017 28.9081C214.092 28.8476 214.157 28.7401 214.212 28.5857C214.266 28.4283 214.309 28.2118 214.339 27.9363C214.369 27.6608 214.389 27.3051 214.398 26.8691L214.434 24.9936H218.417V29.9435Z" fill="#4E2D2D"/>
<path d="M219.766 24.9936H221.051V28.0453H221.069L222.872 24.9936H224.221V29.9435H222.94V26.96H222.917L221.169 29.9435H219.766V24.9936Z" fill="#4E2D2D"/>
<path d="M229.915 29.9435H228.625V28.1225H227.785C227.601 28.1225 227.442 28.1301 227.309 28.1452C227.178 28.1573 227.071 28.1891 226.986 28.2406C226.901 28.289 226.836 28.3617 226.791 28.4586C226.748 28.5554 226.724 28.6871 226.718 28.8536L226.7 29.3305C226.694 29.4001 226.685 29.4909 226.673 29.6029C226.664 29.7149 226.635 29.8285 226.586 29.9435H225.229C225.268 29.8769 225.3 29.8133 225.324 29.7528C225.348 29.6892 225.366 29.6287 225.379 29.5711C225.394 29.5106 225.404 29.45 225.41 29.3895C225.419 29.3289 225.427 29.2654 225.433 29.1988L225.497 28.6039C225.512 28.4707 225.53 28.3556 225.551 28.2587C225.572 28.1619 225.607 28.0786 225.656 28.009C225.704 27.9363 225.771 27.8743 225.855 27.8228C225.94 27.7713 226.054 27.7244 226.196 27.682C226.151 27.6699 226.099 27.6533 226.042 27.6321C225.987 27.6078 225.928 27.5776 225.864 27.5412C225.804 27.5019 225.742 27.4534 225.678 27.3959C225.618 27.3354 225.56 27.2612 225.506 27.1734C225.466 27.1159 225.435 27.0553 225.41 26.9918C225.389 26.9252 225.372 26.8616 225.36 26.801C225.348 26.7375 225.341 26.6784 225.338 26.6239C225.335 26.5694 225.333 26.5225 225.333 26.4831C225.333 26.3076 225.354 26.1516 225.397 26.0154C225.439 25.8761 225.494 25.755 225.56 25.6521C225.627 25.5492 225.702 25.4614 225.787 25.3887C225.872 25.3161 225.958 25.257 226.046 25.2116C226.143 25.1571 226.25 25.1163 226.368 25.089C226.487 25.0587 226.602 25.0375 226.714 25.0254C226.826 25.0103 226.93 25.0012 227.027 24.9982C227.124 24.9952 227.2 24.9936 227.254 24.9936H229.915V29.9435ZM228.625 25.9609H227.59C227.481 25.9609 227.372 25.9639 227.263 25.97C227.154 25.9761 227.056 26.0003 226.968 26.0427C226.883 26.082 226.814 26.1456 226.759 26.2334C226.708 26.3182 226.682 26.4393 226.682 26.5967C226.682 26.7511 226.708 26.8691 226.759 26.9509C226.814 27.0326 226.882 27.0932 226.963 27.1325C227.048 27.1719 227.142 27.1946 227.245 27.2007C227.348 27.2067 227.451 27.2097 227.554 27.2097H228.625V25.9609Z" fill="#4E2D2D"/>
<path d="M28.658 10.597C25.2242 7.45402 21.8225 4.31102 18.3566 1.20009C17.8752 0.783166 17.2655 0.366237 16.6558 0.270023C13.3182 -0.403477 10.2695 0.109666 7.76636 2.64331C7.47754 2.89988 7.25289 3.22059 7.06034 3.50924C6.86779 3.76581 6.73943 4.08652 6.51479 4.47138C7.02825 4.63174 7.44544 4.79209 7.86264 4.95245C11.6495 6.26738 15.4363 7.58231 19.2231 8.86516C19.897 9.08966 20.3463 9.60281 20.7956 10.2122C21.0202 10.5008 21.7904 10.7574 22.1434 10.6932C23.1062 10.4687 23.8443 10.5008 24.7429 10.8215C26.7967 11.5271 28.8185 12.2327 30.9686 12.7779C30.1984 12.0402 29.4282 11.3026 28.658 10.597ZM16.8483 3.92617C16.6558 4.50345 15.5325 4.63174 14.3772 4.21481C13.2219 3.79788 12.4517 2.99609 12.6443 2.41881C12.8368 1.84152 13.9601 1.71324 15.1154 2.13017C16.2707 2.54709 17.0409 3.34888 16.8483 3.92617ZM23.6196 8.41617C23.4592 8.86517 22.6569 9.02552 21.8546 8.73688C21.0523 8.44824 20.5388 7.83888 20.6993 7.38988C20.8598 6.94088 21.6621 6.78052 22.4643 7.06917C23.2666 7.32574 23.7801 7.93509 23.6196 8.41617Z" fill="#FD9339"/>
<path d="M32.7008 15.1514C29.7805 14.1251 26.8601 13.1309 23.9398 12.1046C23.298 11.8801 22.8487 12.0726 22.1427 12.265C21.3404 12.4895 20.4097 12.1688 19.8321 11.5594C19.5432 11.2387 19.2865 10.5331 18.9014 10.3728C14.8258 8.92957 10.718 7.51843 6.61029 6.10729C6.41774 6.04315 6.22519 6.01108 5.96845 5.979C5.74381 6.6525 5.51917 7.29393 5.29453 7.96743C7.25212 9.85965 6.89911 13.0668 3.30484 13.7403C2.85556 15.0873 2.37418 16.4664 1.9249 17.8775C1.34725 19.6414 0.737508 21.4054 0.159858 23.1693C-0.128968 24.0994 -0.064784 24.2597 0.833783 24.6125C1.57189 24.9011 2.34209 25.1256 3.0802 25.3822C7.38049 26.8575 11.6808 28.3649 15.9811 29.8401C16.3341 29.9684 16.6871 30.0967 16.9759 30.1929C19.9604 28.0121 21.9501 28.7176 22.7524 32.1814C24.004 32.6304 25.3518 33.0794 26.6676 33.5284C27.2452 33.7208 27.6303 33.5284 27.8229 32.919C28.1438 31.8927 28.5289 30.8344 28.8819 29.7439C27.4378 28.8139 26.5071 27.5951 27.0848 25.8312C27.6624 24.0673 29.1066 23.5862 30.8074 23.7786C31.7381 21.0205 32.6367 18.2944 33.5673 15.5042C33.2785 15.4401 32.9897 15.2797 32.7008 15.1514ZM6.48192 22.7524C6.41774 22.9127 6.32146 23.0731 6.1931 23.2014C5.808 23.5862 5.19825 23.7786 4.65269 23.6183C3.97877 23.4259 3.56158 22.6882 3.62576 21.9826C3.62576 21.8864 3.65785 21.7902 3.68994 21.694C3.72204 21.5336 3.81831 21.4054 3.94668 21.2771C3.94668 21.245 3.97877 21.245 3.97877 21.2129C4.17132 21.0205 4.39596 20.8922 4.65269 20.796C4.68479 20.796 4.74897 20.7639 4.78106 20.7639C5.06989 20.6998 5.35871 20.6998 5.61545 20.796C5.808 20.8601 5.96845 20.9564 6.09682 21.1167C6.161 21.1809 6.22519 21.245 6.28937 21.3412C6.44983 21.5978 6.5461 21.8864 6.5782 22.1751C6.5782 22.3675 6.5461 22.5599 6.48192 22.7524ZM16.0132 17.6851C15.6281 17.9416 15.1788 18.102 14.6974 18.1341C14.6653 18.1341 14.6332 18.1341 14.6332 18.1341C14.4407 18.1341 14.2481 18.1341 14.0235 18.102C13.8309 18.0699 13.6063 18.0379 13.4137 17.9416C13.2212 17.8775 13.0607 17.7813 12.9003 17.6851C12.098 17.204 11.5845 16.306 11.4882 15.3439C11.4561 14.959 11.4882 14.5741 11.6166 14.2214C11.745 13.8686 11.9054 13.5799 12.098 13.2913C12.1301 13.2271 12.1622 13.163 12.1942 13.1309C12.3547 12.9385 12.5793 12.7461 12.7719 12.6178C12.9324 12.4895 13.1249 12.3933 13.2854 12.3291C13.9272 12.0726 14.6332 12.0084 15.3713 12.265C16.5266 12.6819 17.2647 13.7082 17.3289 14.8628C17.361 15.2476 17.2968 15.6646 17.1685 16.0494C17.1043 16.2419 17.008 16.4343 16.9117 16.6267C16.7192 17.1078 16.3983 17.4285 16.0132 17.6851ZM18.6768 25.7671C17.6177 25.7671 16.7513 24.9011 16.7513 23.8428C16.7513 22.7844 17.6177 21.9185 18.6768 21.9185C19.7358 21.9185 20.6023 22.7844 20.6023 23.8428C20.6023 24.9011 19.7358 25.7671 18.6768 25.7671ZM26.9564 19.4169C26.8601 19.7697 26.6355 20.0584 26.3146 20.2508C26.2504 20.2829 26.1862 20.347 26.0899 20.3791C25.769 20.5074 25.416 20.5715 25.0951 20.4753C24.4212 20.2508 24.004 19.5773 24.0682 18.8717C24.0682 18.8396 24.0682 18.8396 24.0682 18.8076C24.0682 18.7434 24.1003 18.6472 24.1324 18.5831C24.1965 18.3906 24.2928 18.1982 24.4212 18.0699C24.6137 17.8454 24.8705 17.6851 25.1593 17.6209C25.4481 17.5568 25.7369 17.5568 26.0258 17.653C26.2183 17.7171 26.3788 17.8134 26.5071 17.9416C26.8601 18.2624 27.0527 18.7114 27.0206 19.1924C26.9885 19.2245 26.9885 19.3207 26.9564 19.4169Z" fill="#FD9339"/>
</svg>
